<?xml version="1.0" standalone="no"?>
<!DOCTYPE svg PUBLIC "-//W3C//DTD SVG 20010904//EN"
 "http://www.w3.org/TR/2001/REC-SVG-20010904/DTD/svg10.dtd">
<svg version="1.0" xmlns="http://www.w3.org/2000/svg"
 width="71.000000pt" height="71.000000pt" viewBox="0 0 71.000000 71.000000"
 preserveAspectRatio="xMidYMid meet">
<metadata>
Created by potrace 1.14, written by Peter Selinger 2001-2017
</metadata>
<g transform="translate(0.000000,71.000000) scale(0.100000,-0.100000)"
fill="#000000" stroke="none">
<path d="M270 699 c-105 -30 -192 -103 -237 -198 -22 -46 -27 -70 -27 -141 -1
-71 4 -94 26 -141 28 -61 92 -139 114 -139 8 0 14 -4 14 -9 0 -5 24 -19 53
-32 43 -20 69 -24 147 -24 86 0 101 3 154 30 78 39 132 94 167 169 25 52 29
73 29 147 0 76 -4 93 -30 147 -60 118 -166 189 -300 197 -41 2 -91 0 -110 -6z"/>
</g>
</svg>
