<?xml version="1.0" standalone="no"?>
<!DOCTYPE svg PUBLIC "-//W3C//DTD SVG 20010904//EN"
 "http://www.w3.org/TR/2001/REC-SVG-20010904/DTD/svg10.dtd">
<svg version="1.0" xmlns="http://www.w3.org/2000/svg"
 width="141.000000pt" height="141.000000pt" viewBox="0 0 141.000000 141.000000"
 preserveAspectRatio="xMidYMid meet">
<metadata>
Created by potrace 1.14, written by Peter Selinger 2001-2017
</metadata>
<g transform="translate(0.000000,141.000000) scale(0.100000,-0.100000)"
fill="#000000" stroke="none">
<path d="M332 1098 c-8 -11 -102 -254 -102 -265 0 -2 47 -3 104 -3 l105 0 10
53 c13 66 41 218 41 223 0 11 -149 3 -158 -8z"/>
<path d="M526 1098 c-6 -22 -46 -243 -46 -256 0 -9 28 -12 105 -12 l105 0 0
140 0 140 -80 0 c-56 0 -82 -4 -84 -12z"/>
<path d="M730 970 l0 -140 98 0 c54 0 101 2 104 5 3 4 2 23 -2 43 -4 20 -15
81 -25 135 l-17 97 -79 0 -79 0 0 -140z"/>
<path d="M931 1088 c0 -13 10 -75 22 -138 l22 -115 103 -3 c78 -2 102 0 101
10 0 7 -28 69 -62 138 l-62 125 -62 3 c-60 3 -63 2 -62 -20z"/>
<path d="M220 786 c0 -25 49 -74 80 -81 58 -13 111 19 133 78 6 15 -3 17 -103
17 -89 0 -110 -3 -110 -14z"/>
<path d="M468 775 c-9 -45 67 -92 129 -80 44 8 93 51 93 81 0 24 0 24 -109 24
-108 0 -109 0 -113 -25z"/>
<path d="M732 774 c8 -67 137 -96 193 -44 15 14 25 33 23 45 -3 18 -11 20
-111 23 l-108 3 3 -27z"/>
<path d="M980 786 c0 -8 12 -28 26 -45 47 -57 137 -50 175 13 10 17 19 34 19
39 0 4 -49 7 -110 7 -88 0 -110 -3 -110 -14z"/>
<path d="M430 720 c0 -19 -64 -50 -102 -50 l-38 0 0 -204 0 -205 26 -20 c26
-20 38 -21 394 -21 356 0 368 1 394 21 l26 20 0 205 0 204 -34 0 c-43 0 -75
12 -103 39 l-22 21 -27 -25 c-55 -51 -142 -52 -201 -1 l-27 24 -39 -32 c-34
-27 -46 -31 -102 -31 -56 0 -67 4 -104 33 -23 18 -41 28 -41 22z m240 -290 l0
-180 -115 0 -115 0 0 180 0 180 115 0 115 0 0 -180z m318 83 l-3 -98 -95 0
-95 0 -3 98 -3 97 101 0 101 0 -3 -97z"/>
</g>
</svg>
